<?xml version="1.0" standalone="no"?><!DOCTYPE svg PUBLIC "-//W3C//DTD SVG 1.1//EN" "http://www.w3.org/Graphics/SVG/1.1/DTD/svg11.dtd"><svg class="icon" width="32px" height="32.00px" viewBox="0 0 1024 1024" version="1.1" xmlns="http://www.w3.org/2000/svg"><path fill="#2c2c2c" d="M172.880629 0c104.354247 29.281776 213.530248 45.375577 313.573656 87.27055 75.774978 172.625172 120.575776 358.534115 191.337408 533.777722 93.114132-42.88487 169.687414-114.061619 263.759511-154.998627 24.970937 141.523263-145.546713 163.173257-224.514906 240.193588 32.890109 78.680803 88.388175 143.598852 149.729824 201.619559a2269.928402 2269.928402 0 0 1-190.219783 115.849819c-21.649994-80.341275-56.200574-157.617064-112.528876-219.916677-102.821504 37.456405-199.799426 186.196333-313.988774 96.307347 79.638768-64.534863 173.295747-108.377697 254.882375-170.102533-128.750405-138.489709-277.522265-259.480604-399.343395-403.622302A1490.43283 1490.43283 0 0 1 172.880629 0.031932z" /></svg>