<?xml version="1.0" standalone="no"?><!DOCTYPE svg PUBLIC "-//W3C//DTD SVG 1.1//EN" "http://www.w3.org/Graphics/SVG/1.1/DTD/svg11.dtd"><svg class="icon" width="32px" height="32.00px" viewBox="0 0 1024 1024" version="1.1" xmlns="http://www.w3.org/2000/svg"><path fill="#1296db" d="M989.978373 273.500139l-158.845385-24.063604 44.585932-44.585933A39.999342 39.999342 0 1 0 819.186518 148.275533l-44.607266 44.585933-24.063604-158.80272C745.587729 1.760611 705.908382-11.508504 682.655431 11.744447L467.149645 227.292899a39.956676 39.956676 0 0 0-11.263815 34.26077l7.637208 50.388504L116.691413 543.469029c-137.768399 91.966486-156.73342 286.77928-39.850011 403.684022 116.968742 116.968742 311.781535 97.833056 403.705356-39.85001l231.526856-346.810292 50.367171 7.615874a39.999342 39.999342 0 0 0 34.282102-11.263814L1012.250007 341.339022c23.10362-23.082287 10.218498-62.889632-22.271634-67.838883zM140.56302 883.410101c-71.700153-71.721486-68.990865-187.196919 2.43196-255.782457l253.393163 253.37183c-68.606871 71.444157-184.103637 74.132113-255.825123 2.43196z m617.952496-402.852037l-55.188425-8.362529a39.743346 39.743346 0 0 0-39.018024 17.23705L447.139307 814.80323 209.191224 576.855146 534.561869 359.685387a39.743346 39.743346 0 0 0 17.237049-39.018025l-8.362529-55.188425 144.360291-144.36029 20.906323 137.981729-75.070765 75.049431a39.743346 39.743346 0 0 0 56.212408 56.212408l75.049432-75.049431 137.981729 20.906322-144.360291 144.338958z"  /></svg>