<?xml version="1.0" standalone="no"?><!DOCTYPE svg PUBLIC "-//W3C//DTD SVG 1.1//EN" "http://www.w3.org/Graphics/SVG/1.1/DTD/svg11.dtd"><svg class="icon" width="32px" height="28.47px" viewBox="0 0 1151 1024" version="1.1" xmlns="http://www.w3.org/2000/svg"><path fill="#1296db" d="M302.335176 334.710999L354.194348 352.010723h9.339851l10.439833-52.239166c1.439977-7.159886 3.599943-15.159758 6.419898-23.579624l-40.579352-81.158705 47.59924-142.777722c5.579911-16.759733-3.459945-34.879443-20.239677-40.479354L336.834625 1.656314c-16.759733-5.599911-34.899443 3.459945-40.479354 20.239677l-51.779174 155.357521a64.078977 64.078977 0 0 0 3.459945 48.85922l54.299134 108.598267z m844.266528 364.054191l-105.498317-158.237475a64.002979 64.002979 0 0 0-53.23915-28.499545H831.986724l137.977798-48.719223a64.058978 64.058978 0 0 0 33.019473-25.219598l107.19829-160.817433c9.799844-14.699765 5.819907-34.579448-8.879859-44.379292l-26.619575-17.759717c-14.699765-9.799844-34.579448-5.819907-44.379292 8.879858l-101.118386 151.65758L808.187104 416.009702H735.988256l-20.739669-103.698346C710.868657 290.371707 680.509141 192.013276 575.990809 192.013276c-104.518332 0-134.877848 98.35843-139.257778 120.29808L415.993362 416.009702h-72.198848l-120.978069-40.339357L121.678058 224.012765c-9.799844-14.699765-29.659527-18.679702-44.379291-8.879858l-26.619576 17.759717c-14.699765 9.799844-18.679702 29.659527-8.879858 44.379292l107.198289 160.817433a64.058978 64.058978 0 0 0 33.019474 25.219598L319.994894 512.00817H164.117381a64.038978 64.038978 0 0 0-53.25915 28.499545L5.379914 698.76519c-9.799844 14.699765-5.839907 34.579448 8.879858 44.379292l26.619576 17.759716c14.699765 9.799844 34.579448 5.819907 44.379292-8.879858l95.998468-143.997702h94.118498l-121.658059 194.656894A63.974979 63.974979 0 0 0 143.997702 836.60299V992.000511c0 17.679718 14.319771 31.999489 31.99949 31.999489h31.999489c17.679718 0 31.999489-14.319771 31.999489-31.999489v-146.217667l148.157636-237.056217c-2.019968 28.099552-4.159934 56.219103-4.159933 84.418652C383.993873 799.283586 465.512572 896.002042 575.990809 896.002042s191.996936-96.718457 191.996936-202.856763c0-28.19955-2.159966-56.319101-4.159933-84.418652L911.985447 845.782844V992.000511c0 17.679718 14.319771 31.999489 31.99949 31.999489h31.999489c17.679718 0 31.999489-14.319771 31.99949-31.999489v-155.41752c0-11.999809-3.379946-23.759621-9.719845-33.919459L876.606012 608.006638h94.118498l95.998468 143.997702c9.799844 14.699765 29.679526 18.679702 44.379292 8.879859l26.619575-17.759717c14.719765-9.799844 18.679702-29.659527 8.879859-44.359292zM812.16704 195.033228l-40.579352 81.158705c2.819955 8.419866 4.979921 16.419738 6.419897 23.579624l10.439834 52.239166h9.339851l51.859172-17.299724 54.299134-108.598267a63.988979 63.988979 0 0 0 3.459945-48.85922l-51.779174-155.357521C850.046436 5.136258 831.906725-3.943597 815.146993 1.656314l-30.339516 10.119838c-16.759733 5.599911-25.819588 23.719622-20.239677 40.479354l47.59924 142.777722z" /></svg>