<?xml version="1.0" standalone="no"?><!DOCTYPE svg PUBLIC "-//W3C//DTD SVG 1.1//EN" "http://www.w3.org/Graphics/SVG/1.1/DTD/svg11.dtd"><svg t="1616415596487" class="icon" viewBox="0 0 1024 1024" version="1.1" xmlns="http://www.w3.org/2000/svg" p-id="3263" id="mx_n_1616415596489" xmlns:xlink="http://www.w3.org/1999/xlink" width="32" height="32"><defs><style type="text/css"></style></defs><path d="M512 0c282.7776 0 512 229.2224 512 512 0 282.7776-229.2224 512-512 512C229.2224 1024 0 794.7776 0 512 0 229.2224 229.2224 0 512 0z" fill="#1890FF" p-id="3264"></path><path d="M379.989333 514.781867s144.725333-106.0352 192.0512-85.469867c47.325867 20.565333-16.674133 151.381333-21.333333 170.717867-4.676267 19.336533-34.696533 167.338667 64 85.469866 0 0 49.3568-32.6656-21.333333 42.7008-70.7072 75.349333-160.068267 99.328-170.717867 42.683734-8.055467-42.734933 34.2016-197.666133 42.666667-256.0512 2.7648-19.080533-21.333333 0-21.333334 0s-69.376 48.674133-85.333333 21.265066c-2.56-4.352 14.5408-17.7152 21.333333-21.316266z m178.312534-292.8128a76.8 76.8 0 1 1-80.315734 72.448 76.612267 76.612267 0 0 1 80.315734-72.448z" fill="#FFFFFF" p-id="3265"></path></svg>